<?xml version="1.0" encoding="UTF-8"?>
<svg xmlns="http://www.w3.org/2000/svg" viewBox="0 0 512 512" width="512" height="512">
<path d="M142.61 124.83C141.81 125.07 141 125.31 140.19 125.55C147.46 127.61 154.42 129.41 161.06 133.26C172.7 140 181.77 150.44 191.94 159.1C192.3 159.06 192.66 159.02 193.01 158.98C193.32 164.49 192.86 170.05 193.24 175.58C194.2 189.73 198.05 203.66 204.18 216.38C207.83 223.96 212.53 231.13 216.83 238.35C222.37 247.67 227.58 257.42 233.07 266.63C236.17 271.84 241.54 277.72 243.21 283.81C236.71 281.9 230.5 278.23 223.9 276.15C219.96 274.9 211.75 274.43 209.01 273.01C209.95 272.95 210.88 272.89 211.81 272.83C209 268.47 200.7 263.16 196.42 259.7C183.19 248.97 170.92 237.32 155.16 230.36C149.07 227.67 142.37 225.33 135.77 224.14C133.91 223.81 128.74 223.61 128.15 221.98C138.1 220.89 147.81 222.77 157.43 223.74C142.49 208.61 127.55 193.48 112.61 178.35C112.56 178.13 112.51 177.92 112.45 177.7C112.06 177.57 111.67 177.44 111.28 177.31C96.46 162.65 81.64 147.99 66.82 133.33C69.77 132.38 72.43 130.74 75.52 130.09C77.87 129.6 80.39 130.02 82.79 129.75C90.64 128.88 98.52 128.51 106.39 127.83C118.18 126.81 130.84 124.69 142.61 124.83ZM354 124.77C355.14 126.41 364.81 126.2 367.33 126.52C378.95 127.98 390.74 128.11 402.39 129.34C406.25 129.74 412.22 129.04 414.86 132.45C417.51 135.87 415.49 139.35 412.92 141.95C406.48 148.45 399.9 154.81 393.43 161.27C375.29 179.43 357.23 197.73 338.79 215.59C333.01 221.18 327.33 226.88 321.68 232.59C318.64 235.67 314.93 238.55 312.34 241.97C312.53 242.2 312.72 242.42 312.91 242.65C310.79 245.66 306.48 248.24 303.48 250.49C296.72 255.55 289.6 261.13 283.56 267.03C282.18 268.37 275.4 274.79 274.06 274.47C276.22 268.76 280.65 263.12 283.8 257.82C294.3 240.13 307.88 221.02 313.86 201.33C317.82 188.27 318.96 175.19 318.96 161.55C318.96 156.76 317.78 142.54 319.36 138.88C328.48 130.96 341.96 125.33 354 124.77ZM302.94 153.8C304.13 155.88 303.45 159.61 303.45 162.02C303.45 168.89 303.6 175.99 302.27 182.74C298.06 204.19 290.08 216.65 279.21 235.04C274.34 243.29 270.01 252.29 264.42 260.06C262.7 257.23 263.81 246.69 263.81 242.91C263.81 231.84 263.81 220.78 263.81 209.71C263.81 204.5 262.79 198.09 264.34 193.08C267.72 188.8 270.3 184.01 274.03 179.85C279.28 173.99 285.8 169 291.66 163.76C295.16 160.63 298.76 155.9 302.94 153.8ZM208.98 174.87C213.4 176.89 217.4 182.97 220.2 186.81C230.26 200.59 233.57 217.65 232.74 234.46C230.07 232.5 226.75 224.7 224.83 221.48C216.96 208.29 208.02 190.69 208.98 174.87ZM409.09 221.98C413.47 221.52 418.05 221.85 422.46 221.85C451.21 221.85 474.81 230.48 491.9 254.67C497.54 262.65 501.39 271.88 505.87 280.41C507.23 283 509.92 290.66 511.92 292.15C511.92 294.06 511.92 295.97 511.92 297.89C509.92 299.25 509.26 301.93 506.57 302.9C503.04 304.17 492.63 300.14 489.57 297.96C488.14 295.76 488.24 292.06 486.77 289.22C477.45 271.16 470.05 250.69 453.19 238.1C444.29 231.45 433.24 227.27 422.44 225.06C420.14 224.59 409.55 223.19 409.09 221.98ZM208.54 273.02C204.2 273.73 192.46 270.63 189.53 273.77C198.28 275.03 206.57 278.08 214.54 281.76C217.65 283.19 221.41 284.15 224.02 286.39C218.52 289.01 211.74 290.06 205.94 292.14C196.6 295.5 187.5 300.25 179.19 305.66C174.41 308.76 166.44 312.5 169.14 319.66C170.75 323.92 175.96 325.7 179.96 323.73C183.99 321.75 187.73 318.55 191.56 316.18C199 311.57 219.12 302.15 227.48 302.02C227.29 305.82 224.52 310.04 223.18 313.62C220.02 322.06 216.66 330.45 213.23 338.78C205.32 357.99 199.44 378.37 185.85 394.62C168.79 415.02 145.43 426.11 122.36 438.2C110.55 444.39 98.87 450.87 87.11 457.19C81.6 460.15 76.16 463.78 70.37 466.17C70.17 466.81 69.96 467.46 69.76 468.11C66.13 465.54 67.88 459.49 67.94 455.74C68.02 450.93 69.26 446 69.86 441.22C70.8 433.69 71.08 425.91 72.63 418.48C73.59 413.84 73.39 408.89 74.07 404.21C76.41 388.13 77.07 371.43 81.11 355.69C85.99 336.69 97.3 320.24 111.4 306.65C116.82 301.42 124.17 295.37 131.27 292.72C132.34 293.15 132.19 292.64 132.33 291.54C133.93 291.95 136.3 289.98 137.92 289.29C142.02 287.51 146.17 285.87 150.29 284.15C163.92 278.47 178.79 272.15 193.81 271.88C198.11 271.81 204.75 270.81 208.54 273.02ZM325.44 273.01C320.85 273.78 310.23 270.59 306.79 273.77C317.57 275.2 327.35 279.95 337.37 283.83C367.61 295.55 391.6 313.3 403.73 344.61C411.84 365.52 412.55 389.1 415.16 411.24C416.46 422.33 417.63 433.5 419.21 444.55C420.33 452.4 421.32 459.79 420.35 467.58C414.71 463.93 408.5 461.1 402.62 457.98C384.25 448.23 365.82 438.38 347.72 428.2C337.06 422.21 325.97 417.08 316.6 408.88C292.45 387.73 285.1 363.06 273.81 334.68C270.11 325.37 266.96 315.67 262.69 306.61C261.36 303.79 259.65 300.41 259.04 297.38C265.61 298.31 272.37 298.77 278.89 300.23C301.93 305.36 323.51 315.61 341.28 331.32C348.11 337.36 354.46 344.27 359.68 351.74C362.41 355.66 364.77 361.42 368.35 364.58C371.62 367.46 377.42 367.03 379.87 363.26C382.54 359.16 380.52 355.44 378.27 351.82C373.84 344.68 368.89 338.01 363.35 331.68C346.31 312.21 323.68 297.47 299.07 289.79C290.59 287.15 280.93 283.48 271.9 283.46C270.52 283.46 269.6 284.18 268.22 284.18C268.57 283.8 268.91 283.42 269.25 283.04C274.63 282.54 279.9 279.06 284.98 277.21C293.49 274.11 303.5 272 312.58 271.86C316.34 271.8 322.17 270.99 325.44 273.01ZM148.59 334.07C145.98 334.62 144.26 336.92 142.74 338.9C139.17 343.55 132.74 351.12 131.13 356.67C130.13 360.14 132.02 364.61 135.5 365.91C144.5 369.29 149.05 356.43 153.18 350.74C154.77 348.55 157.44 346.18 157.94 343.42C158.96 337.84 154.31 332.87 148.59 334.07Z" fill="#fe646f" fill-rule="evenodd" stroke="#fe646f" stroke-width="0.25" stroke-linejoin="round"/>
<path d="M325.31 53.77C325.51 53.77 325.71 53.77 325.91 53.77C325.89 62.81 325.87 71.85 325.84 80.89C324.13 79.61 324.84 76.27 324.84 74.11C324.84 68.89 323.5 58.21 325.31 53.77ZM111.28 177.31C111.67 177.44 112.06 177.57 112.45 177.7C112.51 177.92 112.56 178.13 112.61 178.35C104.53 178.18 96.45 178.01 88.37 177.84C96.01 177.67 103.64 177.49 111.28 177.31ZM436.25 177.93C436.88 177.84 437.5 177.74 438.12 177.65C444.67 177.72 451.21 177.78 457.76 177.85C450.59 177.88 443.42 177.9 436.25 177.93ZM128.15 221.98C128.74 223.61 133.91 223.81 135.77 224.14C142.37 225.33 149.07 227.67 155.16 230.36C170.92 237.32 183.19 248.97 196.42 259.7C200.7 263.16 209 268.47 211.81 272.83C210.88 272.89 209.95 272.95 209.01 273.01C208.86 273.02 208.7 273.02 208.54 273.02C204.75 270.81 198.11 271.81 193.81 271.88C178.79 272.15 163.92 278.47 150.29 284.15C146.17 285.87 142.02 287.51 137.92 289.29C136.3 289.98 133.93 291.95 132.33 291.54C132.19 292.64 132.34 293.15 131.27 292.72C130.37 291.13 126.76 291.26 125.08 291.14C119 290.69 112.93 290.49 106.84 290.17C99.69 289.78 92.68 288.61 85.57 287.97C83.04 287.74 80.44 288.29 77.85 287.87C74.13 287.28 62.11 285.78 58.82 286.39C53.39 287.4 47.98 287.83 42.86 289.99C40.14 291.14 35.23 294.34 32.26 293.87C31.48 294.19 30.7 294.5 29.93 294.81C25.56 296.52 21.2 298.24 16.83 299.95C13.8 302.58 7.31 304.13 3.64 301.89C2.05 300.92 1.4 298.58 0.08 297.78C0.08 295.94 0.08 294.1 0.08 292.26C1.73 291.2 3.96 284.74 5.09 282.67C9.92 273.74 14.49 264.46 19.77 255.69C20.96 253.7 26.99 245.07 28.99 245.25C29.26 243.28 32.21 241.63 33.74 240.13C37.72 236.22 42.83 233.29 47.74 230.72C65.79 221.28 83.69 221.8 104.04 221.8C111.7 221.8 120.66 220.53 128.15 221.98ZM409.09 221.98C409.55 223.19 420.14 224.59 422.44 225.06C433.24 227.27 444.29 231.45 453.19 238.1C470.05 250.69 477.45 271.16 486.77 289.22C488.24 292.06 488.14 295.76 489.57 297.96C487.07 296.91 484.57 295.86 482.07 294.81C478.29 295.15 464.7 287.4 458.93 286.95C441.3 285.56 423.27 288.88 405.63 290.14C400.24 290.53 384.46 290.43 380.61 292.31C377.56 291.81 373.74 288.91 370.74 287.59C359.13 282.49 337.8 272.97 325.44 273.01C322.17 270.99 316.34 271.8 312.58 271.86C303.5 272 293.49 274.11 284.98 277.21C279.9 279.06 274.63 282.54 269.25 283.04C270.85 280.18 272.45 277.32 274.06 274.47C275.4 274.79 282.18 268.37 283.56 267.03C289.6 261.13 296.72 255.55 303.48 250.49C306.48 248.24 310.79 245.66 312.91 242.65C320.63 236.53 329.62 231.66 338.82 228.24C344.02 226.31 349.74 225.43 354.63 223.08C354.95 223.31 355.27 223.54 355.59 223.77C357.93 222.79 359.97 223.15 362.39 222.8C372.05 221.41 381.81 221.8 391.6 221.8C397.16 221.8 403.69 220.87 409.09 221.98Z" fill="#fc8b96" fill-rule="evenodd" stroke="#fc8b96" stroke-width="0.25" stroke-linejoin="round"/>
<path d="M192.92 138.05C192.95 145.03 192.98 152 193.01 158.98C192.66 159.02 192.3 159.06 191.94 159.1C181.77 150.44 172.7 140 161.06 133.26C154.42 129.41 147.46 127.61 140.19 125.55C141 125.31 141.81 125.07 142.61 124.83C154.63 121.93 167.86 125.73 178.79 130.07C182.5 131.55 186.23 133.88 189.49 136.17C190.47 136.85 191.75 138.71 192.92 138.05ZM444.99 133.32C440.96 137.61 436.93 141.89 432.9 146.17C431.73 146.05 426.16 152.22 424.87 153.47C419.42 158.76 414.15 164.23 408.72 169.54C406.28 171.93 402.44 174.62 401.18 177.79C385.67 192.89 370.15 207.98 354.63 223.08C349.74 225.43 344.02 226.31 338.82 228.24C329.62 231.66 320.63 236.53 312.91 242.65C312.72 242.42 312.53 242.2 312.34 241.97C314.93 238.55 318.64 235.67 321.68 232.59C327.33 226.88 333.01 221.18 338.79 215.59C357.23 197.73 375.29 179.43 393.43 161.27C399.9 154.81 406.48 148.45 412.92 141.95C415.49 139.35 417.51 135.87 414.86 132.45C412.22 129.04 406.25 129.74 402.39 129.34C390.74 128.11 378.95 127.98 367.33 126.52C364.81 126.2 355.14 126.41 354 124.77C359.22 122.47 375.71 124.94 381.78 125.77C388.38 126.68 395.24 126.51 401.88 127.01C407.97 127.48 414.05 128.49 420.14 128.89C428.83 129.46 437.26 129.23 444.99 133.32ZM209.17 153.45C223.05 165.08 237.89 177.34 247.56 192.69C249.54 196.59 248.2 203.54 248.2 207.84C248.2 219.84 248.2 231.84 248.2 243.84C248.2 247.42 249.25 257.39 247.58 260.05C242.63 251.52 237.69 242.99 232.74 234.46C233.57 217.65 230.26 200.59 220.2 186.81C217.4 182.97 213.4 176.89 208.98 174.87C208.38 171.05 207.36 156.31 209.17 153.45ZM208.54 273.02C208.7 273.02 208.86 273.02 209.01 273.01C211.75 274.43 219.96 274.9 223.9 276.15C230.5 278.23 236.71 281.9 243.21 283.81C247.33 284.95 252.05 289.45 256.43 289.22C260.16 289.02 264.81 285.68 268.22 284.18C269.6 284.18 270.52 283.46 271.9 283.46C280.93 283.48 290.59 287.15 299.07 289.79C323.68 297.47 346.31 312.21 363.35 331.68C368.89 338.01 373.84 344.68 378.27 351.82C380.52 355.44 382.54 359.16 379.87 363.26C377.42 367.03 371.62 367.46 368.35 364.58C364.77 361.42 362.41 355.66 359.68 351.74C354.46 344.27 348.11 337.36 341.28 331.32C323.51 315.61 301.93 305.36 278.89 300.23C272.37 298.77 265.61 298.31 259.04 297.38C258.18 295.43 257.32 293.48 256.47 291.53C254 292.38 252.84 298.82 251.83 301.21C248.29 309.53 245.41 318.24 241.74 326.52C228.6 356.14 221.75 388.25 194.54 409.86C182.42 419.48 168.69 426 155.22 433.23C137.01 443 118.66 452.76 100.65 462.81C95.7 465.58 85.35 472.22 80.2 473C76.8 473.52 71.01 471.63 69.76 468.11C69.96 467.46 70.17 466.81 70.37 466.17C76.16 463.78 81.6 460.15 87.11 457.19C98.87 450.87 110.55 444.39 122.36 438.2C145.43 426.11 168.79 415.02 185.85 394.62C199.44 378.37 205.32 357.99 213.23 338.78C216.66 330.45 220.02 322.06 223.18 313.62C224.52 310.04 227.29 305.82 227.48 302.02C219.12 302.15 199 311.57 191.56 316.18C187.73 318.55 183.99 321.75 179.96 323.73C175.96 325.7 170.75 323.92 169.14 319.66C166.44 312.5 174.41 308.76 179.19 305.66C187.5 300.25 196.6 295.5 205.94 292.14C211.74 290.06 218.52 289.01 224.02 286.39C221.41 284.15 217.65 283.19 214.54 281.76C206.57 278.08 198.28 275.03 189.53 273.77C192.46 270.63 204.2 273.73 208.54 273.02ZM325.44 273.01C337.8 272.97 359.13 282.49 370.74 287.59C373.74 288.91 377.56 291.81 380.61 292.31C389.86 298.52 398.78 304.01 406.68 312.22C433.78 340.39 434.27 374.3 438.9 410.76C440.48 423.24 441.94 435.75 443.09 448.26C443.5 452.69 445.41 457.76 444.94 462.2C444.29 468.36 437.82 474.39 431.34 472.96C427.49 472.11 423.75 469.41 420.35 467.58C421.32 459.79 420.33 452.4 419.21 444.55C417.63 433.5 416.46 422.33 415.16 411.24C412.55 389.1 411.84 365.52 403.73 344.61C391.6 313.3 367.61 295.55 337.37 283.83C327.35 279.95 317.57 275.2 306.79 273.77C310.23 270.59 320.85 273.78 325.44 273.01ZM148.59 334.07C154.31 332.87 158.96 337.84 157.94 343.42C157.44 346.18 154.77 348.55 153.18 350.74C149.05 356.43 144.5 369.29 135.5 365.91C132.02 364.61 130.13 360.14 131.13 356.67C132.74 351.12 139.17 343.55 142.74 338.9C144.26 336.92 145.98 334.62 148.59 334.07Z" fill="#fd4856" fill-rule="evenodd" stroke="#fd4856" stroke-width="0.25" stroke-linejoin="round"/>
<path d="M302.9 92.82C305.5 93.13 307.64 95.13 310.69 95.22C313.07 95.28 317.12 93.16 318.99 94.05C319.11 108.99 319.24 123.94 319.36 138.88C317.78 142.54 318.96 156.76 318.96 161.55C318.96 175.19 317.82 188.27 313.86 201.33C307.88 221.02 294.3 240.13 283.8 257.82C280.65 263.12 276.22 268.76 274.06 274.47C272.45 277.32 270.85 280.18 269.25 283.04C268.91 283.42 268.57 283.8 268.22 284.18C264.81 285.68 260.16 289.02 256.43 289.22C252.05 289.45 247.33 284.95 243.21 283.81C241.54 277.72 236.17 271.84 233.07 266.63C227.58 257.42 222.37 247.67 216.83 238.35C212.53 231.13 207.83 223.96 204.18 216.38C198.05 203.66 194.2 189.73 193.24 175.58C192.86 170.05 193.32 164.49 193.01 158.98C192.98 152 192.95 145.03 192.92 138.05C192.95 123.23 192.97 108.41 192.99 93.59C194.65 92.94 198.65 95.15 200.81 95.22C202.9 95.28 207.84 93.3 208.65 93.62C208.82 113.56 208.99 133.5 209.17 153.45C207.36 156.31 208.38 171.05 208.98 174.87C208.02 190.69 216.96 208.29 224.83 221.48C226.75 224.7 230.07 232.5 232.74 234.46C237.69 242.99 242.63 251.52 247.58 260.05C249.25 257.39 248.2 247.42 248.2 243.84C248.2 231.84 248.2 219.84 248.2 207.84C248.2 203.54 249.54 196.59 247.56 192.69C247.75 175.68 247.94 158.67 248.14 141.66C256.38 144.07 255.84 144.58 264.09 141.51C264.17 158.7 264.26 175.89 264.34 193.08C262.79 198.09 263.81 204.5 263.81 209.71C263.81 220.78 263.81 231.84 263.81 242.91C263.81 246.69 262.7 257.23 264.42 260.06C270.01 252.29 274.34 243.29 279.21 235.04C290.08 216.65 298.06 204.19 302.27 182.74C303.6 175.99 303.45 168.89 303.45 162.02C303.45 159.61 304.13 155.88 302.94 153.8C302.93 133.48 302.92 113.15 302.9 92.82Z" fill="#ffd15b" fill-rule="evenodd" stroke="#ffd15b" stroke-width="0.25" stroke-linejoin="round"/>
<path d="M214.2 48.15C214.46 60.16 214.72 72.16 214.98 84.16C215.02 87.79 211.21 91.55 208.65 93.62C207.84 93.3 202.9 95.28 200.81 95.22C198.65 95.15 194.65 92.94 192.99 93.59C191.38 90.13 187.41 88.49 187.12 84.16C187.11 72.94 187.11 61.72 187.1 50.5C187.09 37.45 212.41 35.14 214.2 48.15ZM325.91 53.77C325.71 53.77 325.51 53.77 325.31 53.77C325.2 53.69 325.08 53.62 324.97 53.54C324.97 60.55 324.97 67.57 324.97 74.58C324.97 76.73 324.27 80.73 325.56 82.27C325.05 89.02 320.59 89.47 318.99 94.05C317.12 93.16 313.07 95.28 310.69 95.22C307.64 95.13 305.5 93.13 302.9 92.82C300.42 90.83 297.88 88.03 297.09 84.87C295.45 78.3 296.74 66.28 296.74 59.15C296.74 53.37 296.5 47.52 301.1 43.3C310.66 34.53 325.13 41.18 325.91 53.77ZM215.24 52.37C216.53 54 215.88 57.51 215.88 59.62C215.88 63.96 216.87 80.16 215.2 82.94C215.21 72.75 215.23 62.56 215.24 52.37ZM269.98 99.11C269.92 109.01 269.86 118.92 269.79 128.82C270.1 128.9 270.4 128.97 270.71 129.05C271.3 133.64 268.03 139.18 264.09 141.51C255.84 144.58 256.38 144.07 248.14 141.66C245.8 139.13 243.02 137.06 242.06 133.48C241.06 129.77 241.68 125.15 241.68 121.34C241.68 111.82 238.71 97.43 247.21 90.87C254.86 84.96 270.9 89.43 269.98 99.11ZM56.58 144.96C58.86 149.36 63.36 152.8 66.93 156.34C73.56 162.9 80.04 169.62 86.8 176.04C84.49 177.61 79.78 176.75 76.92 176.75C68.98 176.75 60.14 175.68 52.32 176.94C48 176.52 44.31 170.33 45 166.22C45.59 162.78 54.23 147.56 56.58 144.96ZM432.9 146.17C435.64 154.14 447.18 163.07 442.19 172.18C441.17 174.04 439.91 175.55 437.89 176.28C437.97 176.74 438.04 177.19 438.12 177.65C437.5 177.74 436.88 177.84 436.25 177.93C435.94 177.9 435.63 177.86 435.32 177.82C433.69 176.05 430.39 176.75 428.07 176.75C421.99 176.75 415.91 176.75 409.83 176.75C407.89 176.75 403.27 175.9 402.59 177.77C402.12 177.78 401.65 177.78 401.18 177.79C402.44 174.62 406.28 171.93 408.72 169.54C414.15 164.23 419.42 158.76 424.87 153.47C426.16 152.22 431.73 146.05 432.9 146.17Z" fill="#fea95d" fill-rule="evenodd" stroke="#fea95d" stroke-width="0.25" stroke-linejoin="round"/>
<path d="M214.2 48.15C214.55 49.56 214.89 50.96 215.24 52.37C215.23 62.56 215.21 72.75 215.2 82.94C215.13 83.35 215.05 83.75 214.98 84.16C214.72 72.16 214.46 60.16 214.2 48.15ZM187.1 50.5C187.11 61.72 187.11 72.94 187.12 84.16C187.11 72.94 187.11 61.72 187.1 50.5ZM325.31 53.77C323.5 58.21 324.84 68.89 324.84 74.11C324.84 76.27 324.13 79.61 325.84 80.89C325.75 81.35 325.65 81.81 325.56 82.27C324.27 80.73 324.97 76.73 324.97 74.58C324.97 67.57 324.97 60.55 324.97 53.54C325.08 53.62 325.2 53.69 325.31 53.77ZM269.98 99.11C272.3 107.1 270.36 120.34 270.71 129.05C270.4 128.97 270.1 128.9 269.79 128.82C269.86 118.92 269.92 109.01 269.98 99.11ZM66.82 133.33C81.64 147.99 96.46 162.65 111.28 177.31C103.64 177.49 96.01 177.67 88.37 177.84C80.28 178.17 59.14 179.27 52.32 176.94C60.14 175.68 68.98 176.75 76.92 176.75C79.78 176.75 84.49 177.61 86.8 176.04C80.04 169.62 73.56 162.9 66.93 156.34C63.36 152.8 58.86 149.36 56.58 144.96C59.03 140.29 61.74 135.6 66.82 133.33ZM444.99 133.32C452.77 136.13 458.32 149.78 462.27 156.59C463.84 159.29 466.01 161.96 466.91 164.94C468.63 170.65 463.34 177.3 457.76 177.85C451.21 177.78 444.67 177.72 438.12 177.65C438.04 177.19 437.97 176.74 437.89 176.28C439.91 175.55 441.17 174.04 442.19 172.18C447.18 163.07 435.64 154.14 432.9 146.17C436.93 141.89 440.96 137.61 444.99 133.32ZM435.32 177.82C424.41 177.81 413.5 177.79 402.59 177.77C403.27 175.9 407.89 176.75 409.83 176.75C415.91 176.75 421.99 176.75 428.07 176.75C430.39 176.75 433.69 176.05 435.32 177.82Z" fill="#fe9739" fill-rule="evenodd" stroke="#fe9739" stroke-width="0.25" stroke-linejoin="round"/>
</svg>